<svg width="33" height="32" viewBox="0 0 33 32" fill="none" xmlns="http://www.w3.org/2000/svg">
<path d="M32.2082 15.901C32.1705 12.8332 31.2566 9.83993 29.5741 7.27387C27.8915 4.70781 25.5106 2.67578 22.7116 1.4171C19.9124 0.158419 16.8119 -0.274483 13.7749 0.169346C10.7381 0.613195 7.89123 1.91528 5.56979 3.92232C3.24834 5.92934 1.54895 8.5577 0.671751 11.4978C-0.205432 14.438 -0.223912 17.5675 0.618525 20.5178C1.46096 23.4681 3.12921 26.1162 5.42681 28.1505C7.72438 30.1848 10.5556 31.5204 13.5871 32V20.5898H9.56096V15.901H13.5871V12.3391C13.4939 11.5109 13.5837 10.6724 13.8502 9.88263C14.1168 9.09289 14.5534 8.37125 15.1293 7.76865C15.7053 7.16602 16.4064 6.69712 17.1835 6.39504C17.9606 6.09295 18.7946 5.96502 19.6264 6.02032C20.8338 6.03684 22.0385 6.14448 23.2298 6.3423V10.367H21.2167C20.8697 10.3233 20.517 10.3581 20.1852 10.4688C19.8533 10.5795 19.5505 10.7634 19.2993 11.0068C19.048 11.2502 18.8548 11.547 18.7338 11.8751C18.6126 12.2033 18.5669 12.5544 18.5997 12.9026V15.9413H23.0688L22.344 20.6301H18.6198V31.8994C22.4244 31.2979 25.8873 29.3531 28.3803 26.4179C30.8733 23.4826 32.2313 19.7515 32.2082 15.901Z" fill="white"/>
</svg>
