<svg width="28" height="42" viewBox="0 0 28 42" fill="none" xmlns="http://www.w3.org/2000/svg">
<path d="M11.2116 0.268799C5.59057 1.36091 1.13085 5.968 0.194955 11.6294C-0.362039 15.0117 0.28765 18.3444 1.9752 21.1675C2.16797 21.4897 2.31965 21.7427 2.66344 22.316L2.74277 22.4483C6.16783 28.159 7.66277 30.8071 9.22924 34.1632L12.4141 40.9899C13.0424 42.3365 14.9572 42.3368 15.5858 40.9902L18.454 34.8458C20.0361 31.4531 21.5353 28.7663 24.9501 22.9876L25.0372 22.8402C25.5442 21.9822 25.7869 21.571 26.0768 21.0779C27.3295 18.9497 28 16.5218 28 13.9993C28.0001 5.21247 20.0192 -1.4393 11.2116 0.268799ZM23.0602 19.3031C22.7716 19.7939 22.5298 20.2035 22.0241 21.0594L21.937 21.2068C18.4649 27.0824 16.9279 29.8371 15.2823 33.3657L14.0006 36.1116L12.401 32.683C10.7665 29.1812 9.23104 26.4614 5.74438 20.6479L5.66506 20.5156C5.32159 19.9429 5.17065 19.6911 4.97903 19.3709C3.71345 17.2538 3.227 14.758 3.64831 12.1991C4.34591 7.97906 7.69714 4.51707 11.8786 3.70461C18.5168 2.41726 24.5001 7.404 24.5001 13.999C24.5001 15.8932 23.9987 17.7087 23.0602 19.3031Z" fill="#516450"/>
<path d="M14.0001 8.74902C11.0999 8.74902 8.75012 11.0989 8.75012 13.9992C8.75012 16.8995 11.0999 19.2493 14.0001 19.2493C16.9004 19.2493 19.2501 16.8995 19.2501 13.9992C19.2501 11.0989 16.9004 8.74902 14.0001 8.74902ZM14.0001 15.7492C13.0329 15.7492 12.2502 14.9664 12.2502 13.9992C12.2502 13.0319 13.0329 12.2492 14.0001 12.2492C14.9674 12.2492 15.7501 13.0319 15.7501 13.9992C15.7501 14.9664 14.9674 15.7492 14.0001 15.7492Z" fill="#516450"/>
</svg>
