<svg width="332" height="300" viewBox="0 0 332 300" fill="none" xmlns="http://www.w3.org/2000/svg">
<path d="M21.6928 261.083C21.5769 262.096 21.4899 263.081 21.432 264.036C21.403 264.992 21.3885 265.716 21.3885 266.208C21.3885 266.729 21.403 267.236 21.432 267.728C21.461 268.191 21.4899 268.582 21.5189 268.901H20.5191C20.3452 267.192 20.0988 265.846 19.78 264.861C19.4612 263.848 18.9106 263.139 18.1281 262.733C17.3745 262.299 16.2298 262.082 14.6937 262.082H11.0855C10.1001 262.082 9.34662 262.169 8.82495 262.342C8.33226 262.487 7.99898 262.82 7.82509 263.341C7.6512 263.834 7.56424 264.615 7.56424 265.687V287.23C7.56424 288.273 7.6512 289.055 7.82509 289.576C7.99898 290.097 8.33226 290.444 8.82495 290.618C9.34662 290.763 10.1001 290.835 11.0855 290.835H14.259C16.0849 290.835 17.4615 290.589 18.3889 290.097C19.3453 289.605 20.0264 288.808 20.4321 287.708C20.8669 286.579 21.1856 285.058 21.3885 283.147H22.3884C22.3014 283.929 22.258 284.972 22.258 286.275C22.258 286.825 22.2725 287.621 22.3014 288.664C22.3594 289.677 22.4463 290.734 22.5623 291.834C21.0842 291.776 19.4178 291.747 17.5629 291.747C15.7081 291.719 14.0561 291.704 12.607 291.704C11.9694 291.704 11.1435 291.704 10.1291 291.704C9.14374 291.704 8.07141 291.719 6.91214 291.747C5.75287 291.747 4.57911 291.762 3.39086 291.791C2.20261 291.791 1.07232 291.805 0 291.834V290.965C0.985377 290.907 1.72441 290.792 2.2171 290.618C2.73877 290.444 3.08657 290.097 3.26046 289.575C3.43435 289.054 3.52127 288.272 3.52127 287.23V265.686C3.52127 264.615 3.43435 263.833 3.26046 263.341C3.08657 262.82 2.73877 262.472 2.2171 262.298C1.72441 262.096 0.985377 261.98 0 261.951V261.082C1.07232 261.111 2.20261 261.14 3.39086 261.169C4.57911 261.169 5.75287 261.184 6.91214 261.212C8.07141 261.212 9.14374 261.212 10.1291 261.212C11.1435 261.212 11.9694 261.212 12.607 261.212C13.9402 261.212 15.4473 261.212 17.1282 261.212C18.8381 261.184 20.3597 261.141 21.6928 261.083ZM14.2155 275.937C14.2155 275.937 14.2155 276.082 14.2155 276.372C14.2155 276.661 14.2155 276.806 14.2155 276.806H6.26006C6.26006 276.806 6.26006 276.661 6.26006 276.372C6.26006 276.082 6.26006 275.937 6.26006 275.937H14.2155ZM15.4762 270.204C15.3603 271.854 15.3024 273.114 15.3024 273.983C15.3313 274.851 15.3458 275.648 15.3458 276.372C15.3458 277.096 15.3603 277.892 15.3893 278.761C15.4182 279.629 15.4907 280.889 15.6066 282.539H14.6068C14.4908 281.613 14.3459 280.715 14.172 279.846C14.0271 278.949 13.6794 278.225 13.1287 277.675C12.607 277.096 11.7086 276.806 10.4334 276.806V275.937C11.3898 275.937 12.1143 275.749 12.607 275.373C13.1287 274.967 13.5055 274.461 13.7373 273.852C13.9692 273.244 14.1286 272.622 14.2155 271.985C14.3024 271.319 14.3894 270.725 14.4763 270.204H15.4762ZM40.5164 268.857C41.6177 268.857 42.5307 269.002 43.2552 269.292C44.0087 269.581 44.6318 269.987 45.1245 270.508C45.6752 271.087 46.0664 271.811 46.2983 272.68C46.5301 273.548 46.646 274.721 46.646 276.198V287.795C46.646 289.011 46.8924 289.836 47.3851 290.271C47.9067 290.705 48.7617 290.922 49.95 290.922V291.834C49.4573 291.805 48.7038 291.777 47.6894 291.747C46.675 291.69 45.6896 291.661 44.7333 291.661C43.7769 291.661 42.8349 291.69 41.9075 291.747C41.0091 291.776 40.328 291.805 39.8643 291.834V290.922C40.9077 290.922 41.6467 290.705 42.0814 290.271C42.5162 289.836 42.7335 289.011 42.7335 287.795V275.242C42.7335 274.345 42.6611 273.519 42.5162 272.767C42.3712 272.014 42.038 271.406 41.5163 270.942C41.0236 270.479 40.2556 270.247 39.2122 270.247C37.995 270.247 36.9227 270.595 35.9953 271.29C35.0968 271.985 34.3868 272.94 33.8651 274.156C33.3724 275.344 33.1261 276.676 33.1261 278.152V287.795C33.1261 289.011 33.3434 289.836 33.7782 290.271C34.2129 290.705 34.9519 290.922 35.9953 290.922V291.834C35.5316 291.805 34.836 291.777 33.9086 291.747C33.0101 291.69 32.0827 291.661 31.1264 291.661C30.17 291.661 29.1846 291.69 28.1702 291.747C27.1559 291.776 26.4023 291.805 25.9096 291.834V290.922C27.0979 290.922 27.9383 290.705 28.431 290.271C28.9527 289.836 29.2135 289.011 29.2135 287.795V274.2C29.2135 272.897 28.9817 271.941 28.518 271.333C28.0543 270.696 27.1848 270.378 25.9096 270.378V269.466C26.837 269.552 27.7355 269.596 28.6049 269.596C29.4454 269.596 30.2424 269.552 30.9959 269.466C31.7784 269.35 32.4885 269.19 33.1261 268.988V274.113C33.8796 272.144 34.923 270.783 36.2561 270.03C37.6183 269.248 39.0383 268.857 40.5164 268.857ZM62.4266 268.857C64.977 268.857 66.9622 269.639 68.3823 271.203C69.8314 272.738 70.556 275.141 70.556 278.413H55.2101L55.1667 277.588H66.3826C66.4406 276.169 66.3246 274.866 66.0348 273.679C65.745 272.463 65.2813 271.492 64.6437 270.769C64.0351 270.045 63.2381 269.683 62.2527 269.683C60.9196 269.683 59.7313 270.349 58.688 271.681C57.6736 273.013 57.065 275.127 56.8621 278.022L56.9925 278.196C56.9346 278.63 56.8911 279.108 56.8621 279.629C56.8332 280.15 56.8187 280.672 56.8187 281.193C56.8187 283.162 57.1375 284.856 57.7751 286.275C58.4127 287.694 59.2386 288.779 60.253 289.532C61.2963 290.256 62.3687 290.618 63.47 290.618C64.3394 290.618 65.1654 290.488 65.9479 290.227C66.7304 289.938 67.4549 289.474 68.1215 288.837C68.7881 288.2 69.3677 287.346 69.8604 286.275L70.7299 286.622C70.4111 287.578 69.8894 288.504 69.1649 289.402C68.4403 290.3 67.5274 291.038 66.4261 291.617C65.3248 292.167 64.0496 292.442 62.6005 292.442C60.5138 292.442 58.717 291.965 57.2099 291.009C55.7318 290.053 54.5871 288.736 53.7756 287.056C52.9931 285.348 52.6018 283.394 52.6018 281.193C52.6018 278.645 53.0076 276.458 53.819 274.634C54.6305 272.781 55.7753 271.362 57.2534 270.378C58.7314 269.364 60.4558 268.857 62.4266 268.857ZM87.3799 268.857C88.1624 268.857 88.8435 269.017 89.4231 269.335C90.0317 269.654 90.4954 270.074 90.8142 270.595C91.162 271.087 91.3359 271.652 91.3359 272.289C91.3359 273.013 91.104 273.65 90.6403 274.2C90.2056 274.75 89.6115 275.025 88.8579 275.025C88.2493 275.025 87.7131 274.837 87.2494 274.461C86.7857 274.055 86.5539 273.49 86.5539 272.767C86.5539 272.216 86.6988 271.753 86.9886 271.377C87.3074 270.971 87.6552 270.653 88.0319 270.421C87.8291 270.132 87.5248 269.987 87.119 269.987C86.2206 269.987 85.3946 270.262 84.6411 270.812C83.8876 271.333 83.25 272.014 82.7283 272.853C82.2066 273.693 81.8009 274.591 81.5111 275.546C81.2212 276.473 81.0763 277.342 81.0763 278.152V287.361C81.0763 288.779 81.4821 289.735 82.2936 290.227C83.134 290.69 84.2643 290.922 85.6844 290.922V291.834C85.0179 291.805 84.0759 291.777 82.8587 291.747C81.6415 291.69 80.3518 291.661 78.9897 291.661C78.0043 291.661 77.0189 291.69 76.0335 291.747C75.0771 291.776 74.3526 291.805 73.8599 291.834V290.922C75.0481 290.922 75.8886 290.705 76.3813 290.271C76.903 289.836 77.1638 289.011 77.1638 287.795V274.2C77.1638 272.897 76.932 271.941 76.4683 271.333C76.0046 270.696 75.1351 270.378 73.8599 270.378V269.466C74.7873 269.552 75.6858 269.596 76.5552 269.596C77.3957 269.596 78.1927 269.552 78.9462 269.466C79.7287 269.35 80.4387 269.19 81.0763 268.988V274.417C81.3951 273.577 81.8444 272.738 82.424 271.898C83.0326 271.029 83.7571 270.305 84.5976 269.726C85.4381 269.147 86.3655 268.857 87.3799 268.857ZM101.204 300C99.6681 300 98.219 299.841 96.8569 299.522C95.4947 299.204 94.3934 298.697 93.553 298.002C92.7415 297.336 92.3357 296.482 92.3357 295.439C92.3357 294.426 92.7415 293.557 93.553 292.833C94.3645 292.109 95.4657 291.559 96.8569 291.183L97.1177 291.878C96.4801 292.08 95.9729 292.486 95.5962 293.094C95.2194 293.702 95.031 294.382 95.031 295.135C95.031 296.467 95.6396 297.481 96.8569 298.176C98.1031 298.9 99.7116 299.262 101.682 299.262C102.987 299.262 104.262 299.088 105.508 298.74C106.754 298.422 107.783 297.872 108.594 297.09C109.406 296.308 109.812 295.28 109.812 294.006C109.812 293.05 109.464 292.269 108.768 291.661C108.102 291.024 106.769 290.705 104.769 290.705H101.552C100.624 290.705 99.7261 290.633 98.8566 290.488C97.9872 290.343 97.2771 290.039 96.7265 289.576C96.1758 289.112 95.9005 288.403 95.9005 287.447C95.9005 286.463 96.3062 285.522 97.1177 284.624C97.9292 283.698 99.4217 282.756 101.595 281.801L102.117 282.192C101.132 282.713 100.277 283.249 99.5522 283.799C98.8276 284.32 98.4654 284.943 98.4654 285.667C98.4654 286.593 99.1609 287.056 100.552 287.056H105.986C107.203 287.056 108.319 287.23 109.333 287.578C110.377 287.925 111.217 288.475 111.855 289.228C112.493 289.981 112.811 290.966 112.811 292.182C112.811 293.543 112.377 294.817 111.507 296.004C110.638 297.191 109.333 298.147 107.595 298.871C105.885 299.624 103.755 300 101.204 300ZM101.421 282.583C100.001 282.583 98.7117 282.351 97.5524 281.888C96.3932 281.396 95.4803 280.643 94.8137 279.629C94.1471 278.616 93.8138 277.313 93.8138 275.72C93.8138 274.128 94.1471 272.824 94.8137 271.811C95.4803 270.798 96.3932 270.059 97.5524 269.596C98.7117 269.104 100.001 268.857 101.421 268.857C102.871 268.857 104.16 269.104 105.291 269.596C106.45 270.059 107.363 270.798 108.029 271.811C108.696 272.824 109.029 274.128 109.029 275.72C109.029 277.313 108.696 278.616 108.029 279.629C107.363 280.643 106.45 281.396 105.291 281.888C104.16 282.351 102.871 282.583 101.421 282.583ZM101.421 281.801C102.523 281.801 103.378 281.367 103.986 280.498C104.624 279.629 104.943 278.037 104.943 275.72C104.943 273.404 104.624 271.811 103.986 270.942C103.378 270.074 102.523 269.639 101.421 269.639C100.349 269.639 99.4942 270.074 98.8566 270.942C98.219 271.811 97.9002 273.404 97.9002 275.72C97.9002 278.037 98.219 279.629 98.8566 280.498C99.4942 281.367 100.349 281.801 101.421 281.801ZM107.682 272.463L106.899 272.158C107.305 271.174 108 270.305 108.986 269.552C109.971 268.8 111 268.423 112.072 268.423C112.826 268.423 113.434 268.64 113.898 269.075C114.362 269.48 114.594 270.103 114.594 270.942C114.594 271.84 114.347 272.477 113.855 272.853C113.391 273.201 112.913 273.375 112.42 273.375C111.985 273.375 111.58 273.23 111.203 272.94C110.826 272.622 110.609 272.13 110.551 271.464C110.493 270.797 110.696 269.943 111.159 268.901L111.724 269.031C110.507 269.494 109.638 269.987 109.116 270.508C108.594 271 108.116 271.652 107.682 272.463ZM121.115 258.607C121.868 258.607 122.52 258.882 123.071 259.432C123.621 259.982 123.897 260.634 123.897 261.387C123.897 262.14 123.621 262.791 123.071 263.341C122.52 263.891 121.868 264.167 121.115 264.167C120.361 264.167 119.709 263.891 119.158 263.341C118.608 262.791 118.332 262.14 118.332 261.387C118.332 260.634 118.608 259.982 119.158 259.432C119.709 258.882 120.361 258.607 121.115 258.607ZM123.375 268.988V287.795C123.375 289.011 123.621 289.836 124.114 290.271C124.636 290.705 125.491 290.922 126.679 290.922V291.834C126.186 291.805 125.433 291.777 124.418 291.747C123.433 291.69 122.433 291.661 121.419 291.661C120.433 291.661 119.434 291.69 118.419 291.747C117.405 291.776 116.651 291.805 116.159 291.834V290.922C117.347 290.922 118.187 290.705 118.68 290.271C119.202 289.836 119.463 289.011 119.463 287.795V274.2C119.463 272.897 119.231 271.941 118.767 271.333C118.303 270.696 117.434 270.378 116.159 270.378V269.466C117.086 269.552 117.985 269.596 118.854 269.596C119.694 269.596 120.491 269.552 121.245 269.466C122.027 269.35 122.738 269.19 123.375 268.988ZM139.46 268.857C142.01 268.857 143.996 269.639 145.416 271.203C146.865 272.738 147.589 275.141 147.589 278.413H132.243L132.2 277.588H143.416C143.474 276.169 143.358 274.866 143.068 273.679C142.778 272.463 142.315 271.492 141.677 270.769C141.068 270.045 140.271 269.683 139.286 269.683C137.953 269.683 136.765 270.349 135.721 271.681C134.707 273.013 134.098 275.127 133.895 278.022L134.026 278.196C133.968 278.63 133.924 279.108 133.895 279.629C133.867 280.15 133.852 280.672 133.852 281.193C133.852 283.162 134.171 284.856 134.808 286.275C135.446 287.694 136.272 288.779 137.286 289.532C138.33 290.256 139.402 290.618 140.503 290.618C141.373 290.618 142.199 290.488 142.981 290.227C143.764 289.938 144.488 289.474 145.155 288.837C145.821 288.2 146.401 287.346 146.894 286.275L147.763 286.622C147.444 287.578 146.923 288.504 146.198 289.402C145.474 290.3 144.561 291.038 143.459 291.617C142.358 292.167 141.083 292.442 139.634 292.442C137.547 292.442 135.75 291.965 134.243 291.009C132.765 290.053 131.62 288.736 130.809 287.056C130.026 285.348 129.635 283.394 129.635 281.193C129.635 278.645 130.041 276.458 130.852 274.634C131.664 272.781 132.809 271.362 134.287 270.378C135.765 269.364 137.489 268.857 139.46 268.857ZM181.498 257.782V287.1C181.498 288.403 181.73 289.373 182.193 290.01C182.686 290.618 183.556 290.922 184.802 290.922V291.834C183.903 291.747 183.005 291.704 182.107 291.704C181.266 291.704 180.455 291.747 179.672 291.834C178.919 291.921 178.223 292.08 177.585 292.312V262.994C177.585 261.691 177.354 260.735 176.89 260.127C176.426 259.49 175.557 259.172 174.282 259.172V258.259C175.209 258.346 176.107 258.39 176.977 258.39C177.817 258.39 178.614 258.346 179.368 258.259C180.15 258.144 180.86 257.984 181.498 257.782ZM172.369 268.857C173.644 268.857 174.832 269.161 175.933 269.77C177.064 270.378 177.817 271.42 178.194 272.897L177.629 273.331C177.223 272.115 176.586 271.232 175.716 270.682C174.876 270.132 173.876 269.856 172.717 269.856C171.007 269.856 169.572 270.74 168.413 272.506C167.282 274.272 166.732 276.994 166.761 280.672C166.761 283.017 166.978 284.972 167.413 286.535C167.877 288.07 168.543 289.228 169.413 290.01C170.311 290.763 171.398 291.139 172.673 291.139C173.89 291.139 174.992 290.618 175.977 289.576C176.962 288.533 177.556 286.999 177.759 284.972L178.281 285.58C178.049 287.78 177.339 289.474 176.151 290.662C174.992 291.849 173.412 292.442 171.412 292.442C169.615 292.442 168.036 292.008 166.674 291.139C165.341 290.271 164.312 288.968 163.587 287.23C162.892 285.493 162.544 283.307 162.544 280.672C162.544 278.037 162.993 275.85 163.892 274.113C164.819 272.347 166.022 271.029 167.5 270.16C169.007 269.292 170.63 268.857 172.369 268.857ZM206.712 268.988V287.143C206.712 288.446 206.944 289.416 207.408 290.053C207.9 290.662 208.77 290.966 210.016 290.966V291.878C209.118 291.791 208.219 291.747 207.321 291.747C206.48 291.747 205.669 291.791 204.886 291.878C204.133 291.965 203.437 292.124 202.799 292.356V287.23C202.075 289.112 201.046 290.459 199.713 291.27C198.409 292.052 197.061 292.442 195.67 292.442C194.656 292.442 193.772 292.298 193.018 292.008C192.265 291.718 191.642 291.313 191.149 290.792C190.598 290.213 190.221 289.46 190.019 288.533C189.816 287.607 189.714 286.463 189.714 285.102V274.2C189.714 272.897 189.482 271.941 189.019 271.333C188.555 270.696 187.686 270.378 186.41 270.378V269.466C187.338 269.552 188.236 269.596 189.106 269.596C189.946 269.596 190.743 269.552 191.497 269.466C192.279 269.35 192.989 269.19 193.627 268.988V286.057C193.627 286.955 193.685 287.78 193.801 288.533C193.917 289.286 194.206 289.894 194.67 290.358C195.134 290.821 195.887 291.052 196.931 291.052C198.061 291.052 199.061 290.705 199.93 290.01C200.829 289.315 201.524 288.374 202.017 287.187C202.539 286 202.799 284.668 202.799 283.191V274.2C202.799 272.897 202.568 271.941 202.104 271.333C201.64 270.696 200.771 270.378 199.496 270.378V269.466C200.423 269.552 201.321 269.596 202.191 269.596C203.031 269.596 203.828 269.552 204.582 269.466C205.364 269.35 206.074 269.19 206.712 268.988ZM237.925 260.475C239.838 260.475 241.403 260.764 242.62 261.343C243.867 261.893 244.968 262.545 245.924 263.298C246.504 263.732 246.939 263.79 247.228 263.472C247.547 263.124 247.765 262.328 247.881 261.083H248.88C248.822 262.154 248.779 263.457 248.75 264.992C248.721 266.526 248.707 268.553 248.707 271.073H247.707C247.504 269.827 247.316 268.843 247.142 268.119C246.968 267.366 246.75 266.729 246.49 266.208C246.258 265.687 245.939 265.166 245.533 264.644C244.635 263.457 243.505 262.603 242.142 262.082C240.78 261.531 239.346 261.256 237.839 261.256C236.419 261.256 235.129 261.618 233.97 262.342C232.839 263.037 231.854 264.051 231.013 265.383C230.202 266.715 229.564 268.322 229.101 270.204C228.666 272.086 228.449 274.2 228.449 276.545C228.449 278.978 228.695 281.135 229.188 283.017C229.68 284.87 230.361 286.434 231.231 287.708C232.129 288.982 233.173 289.952 234.361 290.618C235.578 291.255 236.882 291.574 238.273 291.574C239.577 291.574 240.94 291.313 242.36 290.792C243.78 290.271 244.896 289.431 245.707 288.273C246.345 287.433 246.779 286.521 247.011 285.536C247.272 284.552 247.504 283.176 247.707 281.41H248.707C248.707 284.045 248.721 286.173 248.75 287.795C248.779 289.387 248.822 290.734 248.88 291.834H247.881C247.765 290.589 247.562 289.807 247.272 289.489C247.011 289.17 246.562 289.214 245.924 289.619C244.852 290.372 243.707 291.038 242.49 291.617C241.302 292.167 239.766 292.442 237.882 292.442C235.129 292.442 232.709 291.82 230.622 290.575C228.564 289.33 226.956 287.534 225.796 285.189C224.666 282.843 224.101 280.02 224.101 276.719C224.101 273.476 224.695 270.638 225.883 268.206C227.072 265.774 228.695 263.877 230.752 262.516C232.839 261.155 235.23 260.475 237.925 260.475ZM263.226 268.901C264.82 268.901 266.255 269.306 267.53 270.117C268.834 270.928 269.863 272.202 270.617 273.939C271.399 275.648 271.79 277.892 271.79 280.672C271.79 283.451 271.399 285.71 270.617 287.447C269.863 289.156 268.834 290.415 267.53 291.226C266.255 292.037 264.82 292.442 263.226 292.442C261.487 292.442 259.893 292.037 258.444 291.226C257.024 290.415 255.894 289.156 255.054 287.447C254.213 285.71 253.793 283.451 253.793 280.672C253.793 277.892 254.213 275.648 255.054 273.939C255.894 272.202 257.024 270.928 258.444 270.117C259.893 269.306 261.487 268.901 263.226 268.901ZM263.226 269.77C261.719 269.77 260.473 270.624 259.488 272.332C258.502 274.012 258.01 276.791 258.01 280.672C258.01 284.552 258.502 287.346 259.488 289.055C260.473 290.734 261.719 291.574 263.226 291.574C264.762 291.574 266.009 290.734 266.965 289.055C267.95 287.346 268.443 284.552 268.443 280.672C268.443 276.791 267.95 274.012 266.965 272.332C266.009 270.624 264.762 269.77 263.226 269.77ZM278.268 268.857C280.673 268.857 282.557 269.639 283.919 271.203C285.281 272.738 285.962 275.141 285.962 278.413H271.921L271.878 277.588H281.789C281.847 276.169 281.746 274.866 281.485 273.679C281.224 272.463 280.804 271.492 280.224 270.769C279.674 270.045 278.964 269.683 278.094 269.683C276.761 269.683 275.573 270.349 274.529 271.681C273.515 273.013 272.906 275.127 272.704 278.022L272.834 278.196C272.776 278.63 272.733 279.108 272.704 279.629C272.675 280.15 272.66 280.672 272.66 281.193C272.66 283.162 272.979 284.856 273.617 286.275C274.254 287.694 275.08 288.779 276.095 289.532C277.138 290.256 278.21 290.618 279.312 290.618C280.123 290.618 280.891 290.488 281.616 290.227C282.34 289.938 283.007 289.474 283.615 288.837C284.253 288.2 284.804 287.346 285.267 286.275L286.137 286.622C285.847 287.578 285.354 288.504 284.659 289.402C283.963 290.3 283.094 291.038 282.05 291.617C281.007 292.167 279.804 292.442 278.442 292.442C276.529 292.442 274.892 291.965 273.53 291.009C272.168 290.053 271.124 288.736 270.4 287.056C269.675 285.348 269.313 283.394 269.313 281.193C269.313 278.645 269.675 276.458 270.4 274.634C271.153 272.781 272.197 271.362 273.53 270.378C274.892 269.364 276.471 268.857 278.268 268.857ZM309.003 268.988V287.143C309.003 288.446 309.235 289.416 309.699 290.053C310.191 290.662 311.061 290.966 312.307 290.966V291.878C311.409 291.791 310.51 291.747 309.612 291.747C308.771 291.747 307.96 291.791 307.177 291.878C306.424 291.965 305.728 292.124 305.09 292.356V287.23C304.366 289.112 303.337 290.459 302.004 291.27C300.7 292.052 299.352 292.442 297.961 292.442C296.947 292.442 296.063 292.298 295.309 292.008C294.556 291.718 293.932 291.313 293.44 290.792C292.889 290.213 292.512 289.46 292.31 288.533C292.107 287.607 292.005 286.463 292.005 285.102V274.2C292.005 272.897 291.773 271.941 291.31 271.333C290.846 270.696 289.977 270.378 288.701 270.378V269.466C289.629 269.552 290.527 269.596 291.397 269.596C292.237 269.596 293.034 269.552 293.788 269.466C294.57 269.35 295.28 269.19 295.918 268.988V286.057C295.918 286.955 295.976 287.78 296.092 288.533C296.208 289.286 296.497 289.894 296.961 290.358C297.425 290.821 298.178 291.052 299.222 291.052C300.352 291.052 301.352 290.705 302.221 290.01C303.12 289.315 303.815 288.374 304.308 287.187C304.83 286 305.09 284.668 305.09 283.191V274.2C305.09 272.897 304.859 271.941 304.395 271.333C303.931 270.696 303.062 270.378 301.787 270.378V269.466C302.714 269.552 303.612 269.596 304.482 269.596C305.322 269.596 306.119 269.552 306.873 269.466C307.655 269.35 308.365 269.19 309.003 268.988ZM328.044 268.857C328.826 268.857 329.508 269.017 330.087 269.335C330.696 269.654 331.16 270.074 331.478 270.595C331.826 271.087 332 271.652 332 272.289C332 273.013 331.768 273.65 331.304 274.2C330.87 274.75 330.276 275.025 329.522 275.025C328.913 275.025 328.377 274.837 327.914 274.461C327.45 274.055 327.218 273.49 327.218 272.767C327.218 272.216 327.363 271.753 327.653 271.377C327.972 270.971 328.319 270.653 328.696 270.421C328.493 270.132 328.189 269.987 327.783 269.987C326.885 269.987 326.059 270.262 325.305 270.812C324.552 271.333 323.914 272.014 323.392 272.853C322.871 273.693 322.465 274.591 322.175 275.546C321.885 276.473 321.74 277.342 321.74 278.152V287.361C321.74 288.779 322.146 289.735 322.958 290.227C323.798 290.69 324.928 290.922 326.349 290.922V291.834C325.682 291.805 324.74 291.777 323.523 291.747C322.306 291.69 321.016 291.661 319.654 291.661C318.668 291.661 317.683 291.69 316.698 291.747C315.741 291.776 315.017 291.805 314.524 291.834V290.922C315.712 290.922 316.553 290.705 317.045 290.271C317.567 289.836 317.828 289.011 317.828 287.795V274.2C317.828 272.897 317.596 271.941 317.132 271.333C316.669 270.696 315.799 270.378 314.524 270.378V269.466C315.451 269.552 316.35 269.596 317.219 269.596C318.06 269.596 318.857 269.552 319.61 269.466C320.393 269.35 321.103 269.19 321.74 268.988V274.417C322.059 273.577 322.508 272.738 323.088 271.898C323.697 271.029 324.421 270.305 325.262 269.726C326.102 269.147 327.03 268.857 328.044 268.857ZM162.397 229.914C91.0548 230.042 33.1157 172.362 32.9935 101.077C32.9833 95.7884 33.294 90.5813 33.9054 85.4557C41.7304 149.355 96.2919 202.912 162.341 202.795C228.391 202.678 282.779 148.928 290.375 85.0027C291.007 90.1232 291.333 95.3303 291.343 100.619C291.475 171.904 233.74 229.787 162.397 229.914ZM86.2508 54.926C86.098 53.7146 85.7668 52.8289 85.5172 52.2741C85.2777 51.7448 85.0689 51.4292 84.7938 51.1543C84.5237 50.8845 84.213 50.6708 83.6679 50.4214C83.1177 50.1719 82.2262 49.8462 80.9984 49.7037C82.2669 49.5611 83.1686 49.2252 83.7036 48.9809C84.2079 48.7518 84.5187 48.5432 84.7938 48.2683C85.0841 47.9782 85.2828 47.6626 85.5019 47.1841C85.7464 46.6497 86.0878 45.7437 86.2508 44.4763C86.2865 44.6442 86.317 44.8071 86.3476 44.9649C86.5004 45.7131 86.6634 46.4563 86.9538 47.1688C87.1321 47.6066 87.3767 47.9782 87.6874 48.2836C87.9625 48.5533 88.2682 48.7569 88.7572 48.9809C89.2922 49.2252 90.1939 49.5611 91.4675 49.7087C90.2092 49.8513 89.3074 50.1872 88.7725 50.4315C88.2631 50.6657 87.9472 50.8744 87.6721 51.1492C87.4123 51.4088 87.1983 51.7193 86.9589 52.2436C86.7144 52.778 86.3832 53.6738 86.2508 54.926ZM238.121 54.926C237.968 53.7146 237.637 52.8289 237.388 52.2741C237.148 51.7448 236.939 51.4292 236.664 51.1543C236.394 50.8845 236.083 50.6708 235.538 50.4214C234.988 50.1719 234.097 49.8462 232.869 49.7037C234.137 49.5611 235.039 49.2252 235.574 48.9809C236.078 48.7518 236.389 48.5432 236.664 48.2683C236.955 47.9782 237.153 47.6626 237.372 47.1841C237.617 46.6497 237.958 45.7437 238.121 44.4763C238.157 44.6442 238.187 44.8071 238.218 44.9649C238.371 45.7131 238.534 46.4563 238.824 47.1688C239.003 47.6066 239.247 47.9782 239.558 48.2836C239.833 48.5533 240.139 48.7569 240.628 48.9809C241.163 49.2252 242.064 49.5611 243.338 49.7087C242.08 49.8513 241.178 50.1872 240.643 50.4315C240.134 50.6657 239.818 50.8744 239.543 51.1492C239.283 51.4088 239.069 51.7193 238.829 52.2436C238.585 52.778 238.249 53.6738 238.121 54.926ZM209.929 40.6486C209.648 38.4701 209.063 36.8769 208.614 35.8895C208.186 34.9376 207.804 34.3726 207.315 33.8789C206.836 33.3954 206.271 33.0085 205.293 32.5657C204.309 32.1178 202.705 31.5273 200.499 31.2728C202.781 31.0183 204.401 30.4126 205.354 29.9749C206.256 29.5626 206.816 29.186 207.31 28.6922C207.83 28.173 208.191 27.603 208.584 26.7478C209.027 25.7858 209.638 24.1621 209.929 21.8869C209.99 22.1872 210.046 22.4773 210.107 22.7675C210.377 24.1112 210.672 25.4499 211.197 26.7275C211.518 27.5114 211.956 28.1781 212.517 28.7279C213.011 29.2114 213.561 29.5779 214.437 29.9749C215.395 30.4126 217.02 31.0184 219.302 31.2779C217.04 31.5375 215.426 32.1382 214.458 32.581C213.541 32.9984 212.975 33.375 212.481 33.8738C212.012 34.3421 211.63 34.8969 211.197 35.8385C210.754 36.7904 210.158 38.3988 209.929 40.6486ZM113.588 40.6486C113.307 38.4701 112.721 36.8769 112.273 35.8895C111.845 34.9376 111.463 34.3726 110.974 33.8789C110.495 33.3954 109.93 33.0085 108.952 32.5657C107.968 32.1178 106.364 31.5273 104.158 31.2728C106.44 31.0183 108.06 30.4126 109.013 29.9749C109.914 29.5626 110.475 29.186 110.969 28.6922C111.489 28.173 111.85 27.603 112.243 26.7478C112.686 25.7858 113.297 24.1621 113.588 21.8869C113.649 22.1872 113.705 22.4773 113.766 22.7675C114.036 24.1112 114.331 25.4499 114.856 26.7275C115.177 27.5114 115.615 28.1781 116.176 28.7279C116.67 29.2114 117.22 29.5779 118.096 29.9749C119.054 30.4126 120.679 31.0184 122.961 31.2779C120.699 31.5375 119.084 32.1382 118.117 32.581C117.2 32.9984 116.634 33.375 116.14 33.8738C115.671 34.3421 115.289 34.8969 114.856 35.8385C114.418 36.7904 113.822 38.3988 113.588 40.6486ZM162.769 38.7755C162.194 34.2759 160.976 30.9878 160.054 28.9416C159.168 26.9769 158.383 25.8113 157.364 24.7882C156.371 23.7906 155.204 22.9863 153.182 22.0702C151.149 21.1489 147.832 19.9273 143.278 19.3979C147.995 18.8736 151.342 17.6164 153.314 16.7155C155.179 15.8655 156.34 15.0816 157.354 14.0636C158.424 12.9947 159.178 11.8138 159.988 10.0476C160.9 8.05744 162.168 4.70823 162.764 0C162.892 0.620978 163.009 1.2216 163.131 1.81713C163.691 4.59626 164.303 7.36012 165.388 9.99673C166.055 11.6204 166.962 12.9947 168.108 14.1298C169.127 15.1325 170.268 15.8858 172.077 16.7104C174.059 17.6164 177.411 18.8686 182.133 19.4081C177.467 19.9426 174.12 21.1896 172.123 22.1007C170.228 22.9609 169.061 23.7448 168.032 24.7678C167.069 25.7349 166.269 26.8802 165.378 28.8297C164.481 30.8046 163.243 34.1283 162.769 38.7755ZM137.343 151.559C114.734 151.559 99.7154 132.833 98.0138 130.604C95.5328 127.362 93.439 123.804 91.7833 120.027L91.4216 119.197L92.1909 118.724C94.6923 117.182 97.3261 115.894 100.021 114.886C106.736 112.377 114.036 111.516 121.728 112.331C129.487 113.15 135.433 115.456 137.389 116.214C140.435 117.39 143.416 118.846 146.294 120.571C144.093 115.273 142.315 108.961 142.891 101.311C143.089 98.6591 143.568 95.997 144.302 93.391C146.966 83.9694 152.035 77.7291 154.2 75.0619C156.411 72.3439 158.898 69.7938 161.598 67.483L162.285 66.8976L162.963 67.4931C165.587 69.7887 168.006 72.3388 170.156 75.0772C172.556 78.1414 177.528 84.4835 180.045 93.391C180.778 95.997 181.257 98.6591 181.456 101.311C182.031 108.961 180.253 115.273 178.053 120.566C180.926 118.846 183.906 117.39 186.948 116.214C188.899 115.456 194.844 113.15 202.603 112.331L202.664 112.326C210.336 111.521 217.621 112.382 224.315 114.886C227.015 115.894 229.649 117.187 232.145 118.724L232.915 119.197L232.553 120.027C230.887 123.824 228.788 127.382 226.322 130.604C224.539 132.93 208.166 153.29 183.865 151.437C176.58 150.882 169.26 148.307 162.688 143.996L162.173 143.655L161.664 143.99C155.092 148.307 147.766 150.882 140.481 151.437C139.416 151.519 138.372 151.559 137.343 151.559ZM94.0656 120.027C95.5889 123.34 97.4687 126.471 99.6644 129.342C101.376 131.576 117.077 151.137 140.313 149.366C146.88 148.867 153.497 146.632 159.514 142.896C159.392 142.754 159.275 142.606 159.152 142.464C155.698 138.28 152.708 133.724 150.257 128.914L150.12 128.644C149.361 127.153 148.581 125.616 147.832 124.028C144.271 121.63 140.507 119.66 136.64 118.169C134.75 117.436 128.998 115.207 121.515 114.413C114.148 113.634 107.163 114.453 100.755 116.846C98.4571 117.691 96.2155 118.765 94.0656 120.027ZM164.822 142.891C170.839 146.627 177.451 148.862 184.023 149.36C207.244 151.132 222.955 131.571 224.667 129.336C226.852 126.486 228.737 123.356 230.271 120.027C228.126 118.765 225.884 117.696 223.587 116.841C217.178 114.448 210.193 113.629 202.827 114.408L202.766 114.413C195.308 115.207 189.581 117.431 187.696 118.159C183.83 119.65 180.07 121.62 176.509 124.012C175.704 125.712 174.869 127.362 174.079 128.909C171.629 133.724 168.638 138.28 165.184 142.458C165.067 142.601 164.945 142.749 164.822 142.891ZM162.265 69.6615C159.927 71.7331 157.756 73.988 155.815 76.3752C153.732 78.9405 148.846 84.9467 146.304 93.956C145.606 96.4297 145.153 98.9543 144.964 101.469C144.302 110.234 146.931 117.207 149.59 122.872C150.364 124.526 151.179 126.135 151.974 127.692L152.112 127.962C154.491 132.635 157.4 137.068 160.757 141.13C161.134 141.583 161.506 142.026 161.868 142.438L162.178 142.789L162.469 142.453C162.83 142.031 163.202 141.593 163.584 141.13C166.937 137.073 169.846 132.645 172.225 127.967C173.045 126.354 173.921 124.633 174.746 122.872C177.406 117.212 180.034 110.239 179.372 101.474C179.184 98.9594 178.73 96.4348 178.032 93.961C175.628 85.4506 170.824 79.3223 168.516 76.3752C166.631 73.9625 164.532 71.7127 162.265 69.6615ZM203.382 114.413H202.72V113.369L201.777 112.931C206.78 102.248 206.678 91.8894 205.588 84.7787C203.988 85.0129 202.404 85.3081 200.866 85.6491C193.412 87.3186 186.26 90.3116 179.601 94.5515L178.481 92.7955C185.343 88.4283 192.72 85.3386 200.407 83.6182C202.328 83.1906 204.314 82.8394 206.311 82.5748L207.305 82.4424L207.473 83.4299C208.752 90.8409 209.129 102.125 203.657 113.812L203.382 114.413ZM120.679 113.812C115.197 102.115 115.579 90.8358 116.868 83.4299L117.037 82.4424L118.03 82.5748C120.032 82.8394 122.019 83.1906 123.929 83.6182C131.602 85.3335 138.978 88.4232 145.861 92.7955L144.74 94.5515C138.061 90.3065 130.904 87.3136 123.471 85.6491C121.937 85.303 120.353 85.0129 118.753 84.7787C117.658 91.8843 117.551 102.232 122.564 112.931L120.679 113.812Z" fill="#516450"/>
</svg>
