<svg width="116" height="103" viewBox="0 0 116 103" fill="none" xmlns="http://www.w3.org/2000/svg">
<path d="M57.6827 102.948C25.8813 103.005 0.0546093 77.1782 0.000108167 45.259C-0.00443359 42.8909 0.134099 40.5594 0.406605 38.2643C3.89468 66.8765 28.2158 90.8575 57.6577 90.8051C87.0997 90.7527 111.344 66.685 114.729 38.0615C115.011 40.3543 115.156 42.6858 115.161 45.0538C115.22 76.973 89.4841 102.891 57.6827 102.948ZM23.7399 24.5941C23.6718 24.0516 23.5242 23.6551 23.4129 23.4067C23.3062 23.1696 23.213 23.0283 23.0904 22.9053C22.9701 22.7845 22.8315 22.6887 22.5886 22.5771C22.3433 22.4654 21.9459 22.3195 21.3986 22.2557C21.9641 22.1919 22.366 22.0415 22.6044 21.9321C22.8293 21.8295 22.9678 21.7361 23.0904 21.613C23.2199 21.4831 23.3084 21.3418 23.4061 21.1275C23.5151 20.8882 23.6672 20.4825 23.7399 19.915C23.7558 19.9902 23.7694 20.0632 23.783 20.1338C23.8512 20.4689 23.9238 20.8016 24.0533 21.1207C24.1328 21.3167 24.2418 21.4831 24.3803 21.6198C24.5029 21.7406 24.6392 21.8318 24.8572 21.9321C25.0956 22.0415 25.4975 22.1919 26.0653 22.258C25.5044 22.3218 25.1024 22.4722 24.864 22.5816C24.6369 22.6865 24.4961 22.7799 24.3735 22.903C24.2576 23.0192 24.1623 23.1582 24.0555 23.393C23.9465 23.6323 23.7989 24.0334 23.7399 24.5941ZM91.4371 24.5941C91.3689 24.0516 91.2213 23.6551 91.11 23.4067C91.0033 23.1696 90.9102 23.0283 90.7876 22.9053C90.6672 22.7845 90.5287 22.6887 90.2857 22.5771C90.0405 22.4654 89.6431 22.3195 89.0958 22.2557C89.6612 22.1919 90.0632 22.0415 90.3016 21.9321C90.5264 21.8295 90.665 21.7361 90.7876 21.613C90.917 21.4831 91.0056 21.3418 91.1033 21.1275C91.2123 20.8882 91.3644 20.4825 91.4371 19.915C91.453 19.9902 91.4666 20.0632 91.4802 20.1338C91.5483 20.4689 91.621 20.8016 91.7505 21.1207C91.8299 21.3167 91.9389 21.4831 92.0774 21.6198C92.2001 21.7406 92.3363 21.8318 92.5543 21.9321C92.7928 22.0415 93.1947 22.1919 93.7624 22.258C93.2015 22.3218 92.7996 22.4722 92.5611 22.5816C92.3341 22.6865 92.1933 22.7799 92.0707 22.903C91.9548 23.0192 91.8595 23.1582 91.7527 23.393C91.6437 23.6323 91.4938 24.0334 91.4371 24.5941ZM78.87 18.2011C78.7451 17.2257 78.484 16.5123 78.2841 16.0701C78.0934 15.6439 77.9231 15.391 77.7051 15.1699C77.4916 14.9534 77.2395 14.7802 76.8035 14.5819C76.3652 14.3813 75.6499 14.1169 74.6666 14.003C75.684 13.889 76.4061 13.6178 76.8308 13.4218C77.2327 13.2372 77.4825 13.0685 77.7028 12.8475C77.9344 12.615 78.0957 12.3597 78.2705 11.9768C78.4681 11.5461 78.7406 10.819 78.87 9.80026C78.8973 9.93473 78.9223 10.0646 78.9495 10.1945C79.0699 10.7962 79.2016 11.3956 79.4355 11.9677C79.5785 12.3187 79.7738 12.6173 80.0236 12.8634C80.2439 13.0799 80.4892 13.244 80.8798 13.4218C81.3067 13.6178 82.0311 13.889 83.0484 14.0053C82.0402 14.1215 81.3203 14.3904 80.8888 14.5887C80.4801 14.7756 80.228 14.9442 80.0077 15.1676C79.7988 15.3773 79.6285 15.6257 79.4355 16.0473C79.2379 16.4735 78.9722 17.1937 78.87 18.2011ZM35.9254 18.2011C35.8005 17.2257 35.5394 16.5123 35.3395 16.0701C35.1488 15.6439 34.9785 15.391 34.7605 15.1699C34.547 14.9534 34.2949 14.7802 33.8589 14.5819C33.4206 14.3813 32.7053 14.1169 31.722 14.003C32.7394 13.889 33.4615 13.6178 33.8862 13.4218C34.2881 13.2372 34.5379 13.0685 34.7582 12.8475C34.9898 12.615 35.151 12.3597 35.3259 11.9768C35.5235 11.5461 35.796 10.819 35.9254 9.80026C35.9527 9.93473 35.9777 10.0646 36.0049 10.1945C36.1253 10.7962 36.257 11.3956 36.4909 11.9677C36.6339 12.3187 36.8292 12.6173 37.079 12.8634C37.2993 13.0799 37.5446 13.244 37.9352 13.4218C38.3621 13.6178 39.0865 13.889 40.1038 14.0053C39.0956 14.1215 38.3757 14.3904 37.9442 14.5887C37.5355 14.7756 37.2834 14.9442 37.0631 15.1676C36.8542 15.3773 36.6839 15.6257 36.4909 16.0473C36.2956 16.4735 36.0299 17.1937 35.9254 18.2011ZM57.8485 17.3624C57.5919 15.3477 57.0491 13.8753 56.6381 12.9591C56.243 12.0794 55.8933 11.5575 55.4391 11.0994C54.9963 10.6527 54.4762 10.2925 53.5747 9.8823C52.6686 9.46978 51.1903 8.92279 49.1601 8.68576C51.2629 8.45101 52.7549 7.88806 53.6337 7.48465C54.4649 7.10404 54.9826 6.75306 55.4346 6.29724C55.9114 5.81862 56.2475 5.28986 56.6086 4.499C57.0151 3.60786 57.5805 2.10819 57.8462 0C57.903 0.278054 57.9552 0.546993 58.0097 0.813651C58.2595 2.05806 58.532 3.29562 59.0157 4.47621C59.3132 5.20326 59.7174 5.81862 60.2284 6.32687C60.6825 6.77585 61.1912 7.11317 61.9974 7.48239C62.8808 7.88807 64.375 8.44873 66.4801 8.69032C64.4 8.92963 62.908 9.48801 62.0178 9.89598C61.1731 10.2811 60.653 10.6321 60.1943 11.0902C59.7651 11.5233 59.4086 12.0361 59.0112 12.909C58.6115 13.7933 58.0597 15.2816 57.8485 17.3624ZM46.5145 67.8634C36.4364 67.8634 29.7418 59.4784 28.9833 58.4802C27.8774 57.0284 26.9441 55.4353 26.2061 53.7442L26.0448 53.3727L26.3877 53.1607C27.5027 52.4701 28.6768 51.8935 29.8781 51.4422C32.8711 50.3186 36.1253 49.9334 39.5543 50.2981C43.0128 50.665 45.663 51.6975 46.535 52.0371C47.893 52.5636 49.2214 53.2154 50.5045 53.988C49.5235 51.6154 48.7309 48.7893 48.9875 45.3638C49.0761 44.1764 49.2895 42.9844 49.6165 41.8175C50.8042 37.5988 53.0638 34.8046 54.0289 33.6103C55.0144 32.3933 56.1226 31.2514 57.3262 30.2167L57.6328 29.9546L57.9348 30.2213C59.1043 31.2491 60.1829 32.391 61.1413 33.6172C62.2108 34.9892 64.4272 37.829 65.549 41.8175C65.8761 42.9844 66.0895 44.1764 66.1781 45.3638C66.4347 48.7893 65.6421 51.6154 64.6611 53.9857C65.9419 53.2154 67.2704 52.5636 68.6261 52.0371C69.4958 51.6975 72.146 50.665 75.6045 50.2981L75.6318 50.2958C79.0517 49.9357 82.2991 50.3209 85.283 51.4422C86.4866 51.8935 87.6606 52.4724 88.7733 53.1607L89.1162 53.3727L88.955 53.7442C88.2124 55.4444 87.2768 57.0375 86.1777 58.4802C85.3829 59.5217 78.0843 68.6383 67.2522 67.8087C64.0048 67.5602 60.7416 66.407 57.8122 64.4766L57.5828 64.3239L57.3557 64.4743C54.4263 66.407 51.1607 67.5602 47.9134 67.8087C47.4388 67.8451 46.9733 67.8634 46.5145 67.8634ZM27.2234 53.7442C27.9024 55.2279 28.7404 56.6295 29.7191 57.915C30.4821 58.9155 37.481 67.6742 47.8385 66.8811C50.7656 66.6577 53.7155 65.6572 56.3974 63.9843C56.3429 63.9205 56.2907 63.8544 56.2362 63.7906C54.6965 61.9171 53.3635 59.8773 52.2712 57.7235L52.2099 57.6027C51.8715 56.9349 51.5241 56.2466 51.1903 55.5355C49.6029 54.4621 47.9248 53.58 46.2012 52.9123C45.3587 52.5841 42.7948 51.5858 39.4589 51.2303C36.1752 50.8816 33.0618 51.2485 30.2051 52.3197C29.1809 52.698 28.1817 53.1789 27.2234 53.7442ZM58.7637 63.982C61.4456 65.6549 64.3932 66.6554 67.3226 66.8788C77.6733 67.6719 84.6767 58.9132 85.4397 57.9127C86.4139 56.6364 87.2541 55.2347 87.9376 53.7442C86.9816 53.1789 85.9824 52.7003 84.9582 52.3174C82.1015 51.2462 78.9881 50.8793 75.7044 51.228L75.6772 51.2303C72.3526 51.5858 69.8001 52.5818 68.9599 52.9077C67.2363 53.5755 65.5604 54.4575 63.973 55.5287C63.6142 56.2899 63.2418 57.0284 62.8899 57.7212C61.7976 59.8773 60.4646 61.9171 58.9249 63.7883C58.8727 63.8521 58.8182 63.9182 58.7637 63.982ZM57.6237 31.1922C56.5813 32.1198 55.614 33.1294 54.7487 34.1983C53.82 35.347 51.6422 38.0364 50.509 42.0704C50.1979 43.1781 49.9958 44.3086 49.9118 45.4344C49.6166 49.3591 50.7883 52.4815 51.9737 55.0182C52.3189 55.7589 52.6822 56.4791 53.0365 57.1765L53.0978 57.2973C54.1583 59.3895 55.455 61.3747 56.9515 63.1934C57.1195 63.3963 57.2853 63.5945 57.4466 63.7792L57.5851 63.9364L57.7145 63.786C57.8757 63.5968 58.0415 63.4008 58.2118 63.1934C59.7061 61.377 61.0027 59.3941 62.0633 57.2996C62.4289 56.5771 62.8194 55.8068 63.1873 55.0182C64.3727 52.4838 65.5445 49.3614 65.2493 45.4367C65.1653 44.3108 64.9632 43.1804 64.6521 42.0727C63.5802 38.262 61.4388 35.518 60.41 34.1983C59.5698 33.118 58.6342 32.1107 57.6237 31.1922ZM75.9519 51.2303H75.6567V50.763L75.2366 50.567C77.4666 45.7832 77.4212 41.1451 76.9352 37.9612C76.2222 38.066 75.5159 38.1982 74.8301 38.3509C71.5078 39.0985 68.3195 40.4386 65.3515 42.3371L64.8519 41.5508C67.9108 39.5953 71.199 38.2119 74.6257 37.4415C75.4819 37.2501 76.3675 37.0928 77.2577 36.9743L77.7005 36.9151L77.7754 37.3572C78.3454 40.6756 78.5135 45.7284 76.0746 50.9613L75.9519 51.2303ZM39.0865 50.9613C36.643 45.7239 36.8133 40.6733 37.3879 37.3572L37.4628 36.9151L37.9056 36.9743C38.7981 37.0928 39.6837 37.2501 40.5353 37.4415C43.9552 38.2096 47.2435 39.593 50.3114 41.5508L49.8119 42.3371C46.8347 40.4363 43.6441 39.0962 40.3309 38.3509C39.6474 38.1959 38.9412 38.066 38.2281 37.9612C37.7399 41.1428 37.6922 45.7763 39.9267 50.567L39.0865 50.9613Z" fill="#516450"/>
</svg>
