<svg width="285" height="33" viewBox="0 0 285 33" fill="none" xmlns="http://www.w3.org/2000/svg">
<path d="M-6.94394e-06 25.2903V24.0322C1.07526 23.9892 1.87096 23.9032 2.38709 23.7742C2.92472 23.6451 3.27956 23.3871 3.45161 23C3.62365 22.6129 3.70967 22.0322 3.70967 21.258V6.48383C3.70967 5.70964 3.62365 5.13975 3.45161 4.77415C3.27956 4.38706 2.92472 4.11824 2.38709 3.9677C1.87096 3.81717 1.07526 3.73114 -6.94394e-06 3.70964V2.45157C1.16128 2.47308 2.66666 2.49458 4.51612 2.51609C6.36558 2.5376 8.52687 2.54835 11 2.54835C11.8387 2.54835 12.6559 2.54835 13.4516 2.54835C14.2688 2.52684 15.0323 2.51609 15.7419 2.51609C16.4731 2.49458 17.1398 2.47308 17.7419 2.45157C17.7634 3.54835 17.8172 4.63437 17.9032 5.70964C17.9892 6.78491 18.1183 7.86018 18.2903 8.93544H16.9677C16.6882 7.64512 16.3333 6.62362 15.9032 5.87093C15.4731 5.11824 14.9355 4.59136 14.2903 4.29028C13.6452 3.9677 12.828 3.80641 11.8387 3.80641H7.45161V21.4193C7.45161 22.129 7.50537 22.6666 7.6129 23.0322C7.74193 23.3978 7.99999 23.6451 8.38709 23.7742C8.77419 23.8817 9.33333 23.9354 10.0645 23.9354H11.2903C12.6236 23.9354 13.7097 23.7419 14.5484 23.3548C15.4086 22.9462 16.129 22.258 16.7097 21.2903C17.3118 20.3225 17.8602 18.9785 18.3548 17.258H19.6452C19.4946 18.6129 19.3763 19.957 19.2903 21.2903C19.2043 22.6021 19.1613 23.9354 19.1613 25.2903C18.1505 25.2473 16.9677 25.2258 15.6129 25.2258C14.2796 25.2043 12.7204 25.1935 10.9355 25.1935C8.48386 25.1935 6.33333 25.2043 4.48386 25.2258C2.65591 25.2258 1.16128 25.2473 -6.94394e-06 25.2903ZM6.41935 14.4193V13.1935H12.129V14.4193H6.41935ZM13.3226 18.5806C13.2366 17.5483 13.0645 16.7311 12.8064 16.129C12.5484 15.5268 12.172 15.0967 11.6774 14.8387C11.2043 14.5591 10.5699 14.4193 9.77419 14.4193V13.1935C10.871 13.1935 11.6774 12.8709 12.1935 12.2258C12.7312 11.5806 13.0753 10.5161 13.2258 9.03222H14.3871C14.3011 10.301 14.2581 11.2795 14.2581 11.9677C14.2796 12.6344 14.2903 13.2473 14.2903 13.8064C14.2903 14.258 14.2903 14.7096 14.2903 15.1613C14.3118 15.5914 14.3333 16.086 14.3548 16.6451C14.3978 17.1828 14.4409 17.8279 14.4839 18.5806H13.3226ZM34.8077 25.2903V24.0322C35.7109 24.0107 36.3238 23.8387 36.6464 23.5161C36.9905 23.172 37.1625 22.5699 37.1625 21.7096V14C37.1625 12.6881 36.8937 11.6989 36.3561 11.0322C35.84 10.3656 35.0658 10.0322 34.0335 10.0322C33.1948 10.0322 32.4206 10.2688 31.7109 10.7419C31.0013 11.1935 30.3776 11.8602 29.84 12.7419L29.8722 11.3225C30.4099 10.3548 31.1625 9.59136 32.1303 9.03222C33.098 8.47308 34.1948 8.19351 35.4206 8.19351C37.098 8.19351 38.3884 8.72039 39.2916 9.77415C40.2163 10.8279 40.6787 12.3333 40.6787 14.2903V21.7096C40.6787 22.5699 40.926 23.172 41.4206 23.5161C41.9152 23.8387 42.8185 24.0107 44.1303 24.0322V25.2903C43.8077 25.2688 43.3561 25.258 42.7754 25.258C42.2163 25.2365 41.5927 25.215 40.9045 25.1935C40.2378 25.172 39.5927 25.1613 38.969 25.1613C38.1518 25.1613 37.3453 25.1828 36.5496 25.2258C35.7754 25.2473 35.1948 25.2688 34.8077 25.2903ZM23.0658 25.2903V24.0322C24.3561 24.0107 25.2486 23.8387 25.7432 23.5161C26.2593 23.172 26.5174 22.5699 26.5174 21.7096V12.7419C26.5174 11.7311 26.2593 11.0215 25.7432 10.6129C25.2271 10.1828 24.3346 9.9462 23.0658 9.90319V8.64512C23.4959 8.66663 23.9367 8.68813 24.3883 8.70964C24.84 8.73114 25.3131 8.7419 25.8077 8.7419C26.6034 8.7419 27.3453 8.70964 28.0335 8.64512C28.7432 8.5591 29.4099 8.44082 30.0335 8.29028V21.7096C30.0335 22.5699 30.1948 23.172 30.5174 23.5161C30.8615 23.8387 31.4851 24.0107 32.3883 24.0322V25.2903C31.8937 25.2688 31.2808 25.2473 30.5496 25.2258C29.8185 25.1828 29.055 25.1613 28.2593 25.1613C27.3561 25.1613 26.4206 25.1828 25.4529 25.2258C24.4851 25.2473 23.6894 25.2688 23.0658 25.2903ZM54.4572 25.7419C52.8873 25.7419 51.5217 25.3978 50.3604 24.7096C49.1991 24 48.2959 22.9892 47.6507 21.6774C47.027 20.3656 46.7152 18.8172 46.7152 17.0322C46.7152 15.2043 47.0378 13.6344 47.683 12.3225C48.3281 10.9892 49.2528 9.9677 50.4572 9.25802C51.6615 8.54835 53.0808 8.19351 54.7152 8.19351C56.1561 8.19351 57.3926 8.47308 58.4249 9.03222C59.4572 9.56985 60.2421 10.4193 60.7797 11.5806C61.3174 12.7419 61.5647 14.2473 61.5217 16.0967H49.1346L49.1023 14.8709H58.0701C58.0916 13.8387 57.984 12.9139 57.7475 12.0967C57.5109 11.2795 57.1238 10.6344 56.5862 10.1613C56.0701 9.68813 55.4034 9.45157 54.5862 9.45157C53.5539 9.45157 52.6399 9.91394 51.8442 10.8387C51.0701 11.7419 50.6077 13.1828 50.4572 15.1613L50.5217 15.258C50.5002 15.4731 50.4787 15.7096 50.4572 15.9677C50.4572 16.2043 50.4572 16.4731 50.4572 16.7742C50.4572 18.9892 50.8873 20.7204 51.7475 21.9677C52.6292 23.1935 53.8765 23.8064 55.4894 23.8064C56.5647 23.8064 57.5109 23.5376 58.3281 23C59.1668 22.4623 59.8658 21.6344 60.4249 20.5161L61.5539 21.1935C60.9733 22.6344 60.0593 23.7526 58.812 24.5483C57.5862 25.344 56.1346 25.7419 54.4572 25.7419ZM64.7064 25.2903V24.0322C66.0182 24.0107 66.9214 23.8387 67.4161 23.5161C67.9107 23.172 68.158 22.5699 68.158 21.7096V12.7419C68.158 11.7311 67.8892 11.0215 67.3516 10.6129C66.8354 10.1828 65.9537 9.9462 64.7064 9.90319V8.64512C65.201 8.66663 65.6634 8.68813 66.0935 8.70964C66.5451 8.73114 67.0182 8.7419 67.5128 8.7419C69.0397 8.7419 70.4268 8.59136 71.6741 8.29028V21.5161C71.6741 22.4193 71.9967 23.0645 72.6419 23.4516C73.287 23.8172 74.4053 24.0107 75.9967 24.0322V25.2903C75.6096 25.2688 75.0827 25.258 74.4161 25.258C73.7494 25.2365 73.029 25.215 72.2548 25.1935C71.4806 25.172 70.7171 25.1613 69.9645 25.1613C68.9107 25.1613 67.8892 25.1828 66.8999 25.2258C65.9322 25.2473 65.201 25.2688 64.7064 25.2903ZM77.5774 14.0967C77.0827 14.0967 76.6849 13.9677 76.3838 13.7096C76.0827 13.4301 75.9322 13.0752 75.9322 12.6451C75.9322 12.344 75.986 12.086 76.0935 11.8709C76.2225 11.6344 76.3408 11.4086 76.4483 11.1935C76.5559 10.9785 76.6096 10.7742 76.6096 10.5806C76.6096 10.129 76.287 9.90319 75.6419 9.90319C75.1473 9.90319 74.6204 10.0322 74.0612 10.2903C73.5236 10.5268 73.029 10.8602 72.5774 11.2903C72.1257 11.6989 71.7924 12.172 71.5774 12.7096L71.4806 11.3548C72.0612 10.3656 72.8032 9.59136 73.7064 9.03222C74.6096 8.47308 75.5559 8.19351 76.5451 8.19351C77.5559 8.19351 78.3516 8.48383 78.9322 9.06448C79.5344 9.64512 79.8354 10.4193 79.8354 11.3871C79.8354 12.2043 79.6204 12.8602 79.1903 13.3548C78.7817 13.8494 78.244 14.0967 77.5774 14.0967ZM88.7767 33C86.6047 33 84.895 32.6129 83.6477 31.8387C82.4004 31.086 81.7767 30.086 81.7767 28.8387C81.7767 27.8279 82.1423 26.9354 82.8735 26.1613C83.6262 25.3871 84.7337 24.7311 86.1961 24.1935L87.067 24.7742C86.4219 25.0752 85.895 25.5376 85.4864 26.1613C85.0993 26.8064 84.9057 27.5161 84.9057 28.2903C84.9057 29.3871 85.2928 30.2365 86.067 30.8387C86.8627 31.4623 87.9595 31.7742 89.3574 31.7742C90.4756 31.7742 91.4649 31.5806 92.3251 31.1935C93.1853 30.8279 93.8627 30.3225 94.3574 29.6774C94.852 29.0322 95.0993 28.2903 95.0993 27.4516C95.0993 26.6774 94.852 26.0967 94.3574 25.7096C93.8627 25.3225 93.1315 25.129 92.1638 25.129H88.8412C87.5079 25.129 86.4434 24.8817 85.6477 24.3871C84.8735 23.8709 84.4864 23.172 84.4864 22.2903C84.4864 21.6236 84.7229 21 85.1961 20.4193C85.6692 19.8387 86.3789 19.2903 87.3251 18.7742L88.4219 18.9354C87.9703 19.215 87.6369 19.5053 87.4219 19.8064C87.2283 20.086 87.1315 20.3978 87.1315 20.7419C87.1315 21.1505 87.3036 21.4623 87.6477 21.6774C88.0133 21.8924 88.5294 22 89.1961 22H92.809C94.5724 22 95.9165 22.3656 96.8412 23.0967C97.766 23.8064 98.2283 24.8602 98.2283 26.258C98.2283 27.5699 97.8197 28.7311 97.0025 29.7419C96.2068 30.7742 95.0993 31.5699 93.6799 32.129C92.2606 32.7096 90.6262 33 88.7767 33ZM89.1961 19.129C87.2176 19.129 85.6584 18.6451 84.5186 17.6774C83.3789 16.6881 82.809 15.344 82.809 13.6451C82.809 11.9462 83.3789 10.6129 84.5186 9.64512C85.6584 8.67738 87.2176 8.19351 89.1961 8.19351C91.1746 8.19351 92.7229 8.67738 93.8412 9.64512C94.981 10.6129 95.5509 11.9462 95.5509 13.6451C95.5509 15.3656 94.981 16.7096 93.8412 17.6774C92.7229 18.6451 91.1746 19.129 89.1961 19.129ZM89.1961 17.9032C90.1853 17.9032 90.9165 17.5591 91.3896 16.8709C91.8842 16.1613 92.1315 15.086 92.1315 13.6451C92.1315 12.2043 91.8842 11.1397 91.3896 10.4516C90.9165 9.7634 90.1961 9.41932 89.2283 9.41932C88.2391 9.41932 87.4971 9.7634 87.0025 10.4516C86.5294 11.1397 86.2928 12.2043 86.2928 13.6451C86.2928 15.086 86.5294 16.1613 87.0025 16.8709C87.4971 17.5591 88.2283 17.9032 89.1961 17.9032ZM98.4864 12.5483C98.0563 12.5483 97.7337 12.4086 97.5186 12.129C97.3251 11.8494 97.1746 11.5376 97.067 11.1935C96.9595 10.8279 96.852 10.5053 96.7444 10.2258C96.6369 9.9462 96.4649 9.80641 96.2283 9.80641C96.0993 9.80641 95.9057 9.88168 95.6477 10.0322C95.4111 10.1613 95.1638 10.3548 94.9057 10.6129C94.6477 10.8709 94.4111 11.172 94.1961 11.5161L93.6477 10.6129C94.0993 9.92469 94.7014 9.3548 95.4541 8.90319C96.2283 8.43007 96.9918 8.19351 97.7444 8.19351C98.4541 8.19351 99.0025 8.39781 99.3896 8.80641C99.7767 9.21502 99.9703 9.78491 99.9703 10.5161C99.9703 11.1397 99.8305 11.6344 99.5509 12C99.2928 12.3656 98.938 12.5483 98.4864 12.5483ZM102.05 25.2903V24.0322C103.319 24.0107 104.211 23.8387 104.728 23.5161C105.244 23.1935 105.502 22.5914 105.502 21.7096V12.7419C105.502 11.7526 105.244 11.043 104.728 10.6129C104.233 10.1828 103.34 9.9462 102.05 9.90319V8.64512C102.48 8.66663 102.921 8.68813 103.373 8.70964C103.824 8.73114 104.287 8.7419 104.76 8.7419C105.556 8.7419 106.308 8.70964 107.018 8.64512C107.749 8.5591 108.416 8.44082 109.018 8.29028V21.7096C109.018 22.5914 109.265 23.1935 109.76 23.5161C110.276 23.8387 111.179 24.0107 112.469 24.0322V25.2903C112.147 25.2688 111.695 25.258 111.115 25.258C110.556 25.2365 109.932 25.215 109.244 25.1935C108.577 25.172 107.921 25.1613 107.276 25.1613C106.287 25.1613 105.287 25.1828 104.276 25.2258C103.287 25.2473 102.545 25.2688 102.05 25.2903ZM107.147 4.99996C106.523 4.99996 105.975 4.78491 105.502 4.3548C105.05 3.92469 104.824 3.37631 104.824 2.70964C104.824 2.04297 105.05 1.49458 105.502 1.06448C105.975 0.634369 106.523 0.419315 107.147 0.419315C107.792 0.419315 108.34 0.634369 108.792 1.06448C109.265 1.49458 109.502 2.04297 109.502 2.70964C109.502 3.37631 109.265 3.92469 108.792 4.3548C108.34 4.78491 107.792 4.99996 107.147 4.99996ZM122.856 25.7419C121.286 25.7419 119.92 25.3978 118.759 24.7096C117.598 24 116.694 22.9892 116.049 21.6774C115.425 20.3656 115.114 18.8172 115.114 17.0322C115.114 15.2043 115.436 13.6344 116.081 12.3225C116.727 10.9892 117.651 9.9677 118.856 9.25802C120.06 8.54835 121.479 8.19351 123.114 8.19351C124.555 8.19351 125.791 8.47308 126.823 9.03222C127.856 9.56985 128.641 10.4193 129.178 11.5806C129.716 12.7419 129.963 14.2473 129.92 16.0967H117.533L117.501 14.8709H126.468C126.49 13.8387 126.382 12.9139 126.146 12.0967C125.909 11.2795 125.522 10.6344 124.985 10.1613C124.468 9.68813 123.802 9.45157 122.985 9.45157C121.952 9.45157 121.038 9.91394 120.243 10.8387C119.468 11.7419 119.006 13.1828 118.856 15.1613L118.92 15.258C118.899 15.4731 118.877 15.7096 118.856 15.9677C118.856 16.2043 118.856 16.4731 118.856 16.7742C118.856 18.9892 119.286 20.7204 120.146 21.9677C121.028 23.1935 122.275 23.8064 123.888 23.8064C124.963 23.8064 125.909 23.5376 126.727 23C127.565 22.4623 128.264 21.6344 128.823 20.5161L129.952 21.1935C129.372 22.6344 128.458 23.7526 127.21 24.5483C125.985 25.344 124.533 25.7419 122.856 25.7419ZM154.381 25.6451V4.48383C154.381 3.47308 154.123 2.75265 153.607 2.32254C153.091 1.89243 152.198 1.66663 150.929 1.64512V0.354799C151.381 0.376305 151.833 0.39781 152.284 0.419315C152.736 0.440821 153.209 0.451573 153.704 0.451573C154.478 0.451573 155.22 0.419315 155.929 0.354799C156.639 0.268778 157.295 0.150498 157.897 -3.91006e-05V21.1935C157.897 22.1828 158.144 22.9032 158.639 23.3548C159.155 23.7849 160.058 24.0107 161.349 24.0322V25.2903C160.919 25.2473 160.478 25.2258 160.026 25.2258C159.575 25.2043 159.101 25.1935 158.607 25.1935C157.833 25.1935 157.091 25.2258 156.381 25.2903C155.671 25.3763 155.005 25.4946 154.381 25.6451ZM149.381 25.7419C148.005 25.7419 146.8 25.3978 145.768 24.7096C144.736 24.0215 143.94 23.0322 143.381 21.7419C142.843 20.4516 142.575 18.9139 142.575 17.129C142.575 15.2795 142.876 13.6881 143.478 12.3548C144.101 11.0215 144.972 9.99996 146.091 9.29028C147.231 8.5591 148.575 8.19351 150.123 8.19351C151.327 8.19351 152.338 8.45157 153.155 8.9677C153.994 9.46233 154.542 10.0752 154.8 10.8064L154.575 11.8709C154.338 11.2473 153.897 10.7311 153.252 10.3225C152.607 9.91394 151.854 9.70964 150.994 9.70964C149.489 9.70964 148.327 10.3333 147.51 11.5806C146.714 12.8279 146.317 14.6236 146.317 16.9677C146.317 19.2258 146.693 20.9677 147.446 22.1935C148.198 23.3978 149.274 24 150.671 24C151.618 24 152.435 23.6881 153.123 23.0645C153.811 22.4408 154.306 21.5591 154.607 20.4193L154.8 21.6129C154.478 22.9247 153.843 23.9462 152.897 24.6774C151.972 25.3871 150.8 25.7419 149.381 25.7419ZM170.994 25.7419C169.36 25.7419 168.091 25.215 167.188 24.1613C166.306 23.1075 165.865 21.6129 165.865 19.6774V12.7419C165.865 11.7311 165.607 11.0215 165.091 10.6129C164.575 10.1828 163.683 9.9462 162.414 9.90319V8.64512C162.801 8.66663 163.22 8.68813 163.672 8.70964C164.145 8.73114 164.629 8.7419 165.123 8.7419C165.898 8.7419 166.629 8.70964 167.317 8.64512C168.027 8.5591 168.715 8.44082 169.382 8.29028V20.0322C169.382 21.3225 169.629 22.301 170.123 22.9677C170.64 23.6129 171.392 23.9354 172.382 23.9354C173.177 23.9354 173.919 23.7096 174.607 23.258C175.296 22.7849 175.887 22.0967 176.382 21.1935L176.349 22.6129C175.855 23.6021 175.134 24.3763 174.188 24.9354C173.263 25.4731 172.199 25.7419 170.994 25.7419ZM176.22 25.6451V12.7419C176.22 11.7311 175.994 11.0215 175.543 10.6129C175.113 10.1828 174.36 9.9462 173.285 9.90319V8.64512C173.672 8.66663 174.07 8.68813 174.478 8.70964C174.887 8.73114 175.306 8.7419 175.736 8.7419C176.489 8.7419 177.188 8.70964 177.833 8.64512C178.5 8.5591 179.134 8.44082 179.736 8.29028V21.1935C179.736 22.2043 179.994 22.9247 180.511 23.3548C181.027 23.7849 181.919 24.0107 183.188 24.0322V25.2903C182.779 25.2473 182.339 25.2258 181.865 25.2258C181.414 25.2043 180.962 25.1935 180.511 25.1935C179.715 25.1935 178.962 25.2258 178.253 25.2903C177.564 25.3763 176.887 25.4946 176.22 25.6451ZM204.83 25.7419C202.722 25.7419 200.884 25.2688 199.314 24.3225C197.765 23.3548 196.561 22 195.701 20.258C194.841 18.5161 194.411 16.4838 194.411 14.1613C194.411 11.7526 194.851 9.63437 195.733 7.80641C196.636 5.97846 197.884 4.5591 199.475 3.54835C201.066 2.51609 202.905 1.99996 204.991 1.99996C206.002 1.99996 206.873 2.10749 207.604 2.32254C208.357 2.51609 209.002 2.7634 209.54 3.06448C210.077 3.34405 210.54 3.59136 210.927 3.80641C211.314 3.99996 211.669 4.09674 211.991 4.09674C212.314 4.09674 212.561 3.9462 212.733 3.64512C212.905 3.34405 213.034 2.84942 213.12 2.16125H214.411C214.389 2.78491 214.368 3.46233 214.346 4.19351C214.325 4.90319 214.303 5.77415 214.281 6.80641C214.281 7.83867 214.281 9.12899 214.281 10.6774H212.991C212.755 9.1505 212.292 7.83867 211.604 6.7419C210.916 5.64512 210.066 4.80641 209.056 4.22577C208.045 3.64512 206.905 3.3548 205.636 3.3548C203.357 3.3548 201.572 4.27953 200.281 6.12899C199.013 7.95695 198.378 10.5268 198.378 13.8387C198.378 17.129 199.023 19.7204 200.314 21.6129C201.604 23.4838 203.378 24.4193 205.636 24.4193C206.927 24.4193 208.077 24.1182 209.088 23.5161C210.12 22.9139 210.97 22.0645 211.636 20.9677C212.325 19.8494 212.776 18.5483 212.991 17.0645H214.281C214.281 18.5483 214.281 19.8064 214.281 20.8387C214.303 21.8709 214.325 22.7634 214.346 23.5161C214.368 24.2473 214.389 24.9354 214.411 25.5806H213.12C213.034 24.8709 212.905 24.3763 212.733 24.0967C212.583 23.8172 212.346 23.6774 212.023 23.6774C211.658 23.6774 211.271 23.7849 210.862 24C210.475 24.1935 210.013 24.4301 209.475 24.7096C208.937 24.9892 208.281 25.2258 207.507 25.4193C206.755 25.6344 205.862 25.7419 204.83 25.7419ZM226.258 25.7419C224.731 25.7419 223.419 25.3978 222.322 24.7096C221.225 24 220.376 22.9892 219.774 21.6774C219.193 20.3656 218.903 18.7957 218.903 16.9677C218.903 15.1397 219.193 13.5806 219.774 12.2903C220.376 10.9785 221.225 9.97846 222.322 9.29028C223.419 8.58061 224.731 8.22577 226.258 8.22577C228.494 8.22577 230.215 8.98921 231.419 10.5161C232.623 12.043 233.225 14.1935 233.225 16.9677C233.225 19.7634 232.623 21.9247 231.419 23.4516C230.215 24.9785 228.494 25.7419 226.258 25.7419ZM226.354 24.4838C227.537 24.4838 228.451 23.8387 229.096 22.5483C229.741 21.258 230.064 19.4086 230.064 17C230.064 14.5914 229.741 12.7311 229.096 11.4193C228.451 10.1075 227.537 9.45157 226.354 9.45157C225.172 9.45157 224.258 10.1075 223.612 11.4193C222.967 12.7096 222.645 14.5699 222.645 17C222.645 19.4086 222.967 21.258 223.612 22.5483C224.258 23.8387 225.172 24.4838 226.354 24.4838ZM237.741 25.7419C236.322 25.7419 235.075 25.3871 233.999 24.6774C232.924 23.9677 232.086 22.9569 231.483 21.6451C230.881 20.3118 230.58 18.7634 230.58 17C230.58 15.215 230.87 13.6666 231.451 12.3548C232.053 11.043 232.903 10.0215 233.999 9.29028C235.118 8.5591 236.44 8.19351 237.967 8.19351C239.344 8.19351 240.516 8.48383 241.483 9.06448C242.473 9.62362 243.225 10.4838 243.741 11.6451C244.258 12.8064 244.483 14.2903 244.419 16.0967H232.483L232.419 14.8709H240.967C241.01 13.215 240.752 11.9032 240.193 10.9354C239.655 9.9462 238.849 9.45157 237.774 9.45157C236.698 9.45157 235.795 9.9462 235.064 10.9354C234.354 11.9032 233.935 13.3118 233.806 15.1613L233.87 15.258C233.849 15.4086 233.827 15.6021 233.806 15.8387C233.806 16.0537 233.806 16.3656 233.806 16.7742C233.806 18.9892 234.236 20.7204 235.096 21.9677C235.956 23.1935 237.161 23.8064 238.709 23.8064C239.72 23.8064 240.612 23.5376 241.387 23C242.182 22.4408 242.838 21.6129 243.354 20.5161L244.483 21.1935C243.946 22.6129 243.086 23.7311 241.903 24.5483C240.72 25.344 239.333 25.7419 237.741 25.7419ZM255.369 25.7419C253.735 25.7419 252.466 25.215 251.563 24.1613C250.681 23.1075 250.24 21.6129 250.24 19.6774V12.7419C250.24 11.7311 249.982 11.0215 249.466 10.6129C248.95 10.1828 248.058 9.9462 246.789 9.90319V8.64512C247.176 8.66663 247.595 8.68813 248.047 8.70964C248.52 8.73114 249.004 8.7419 249.498 8.7419C250.273 8.7419 251.004 8.70964 251.692 8.64512C252.402 8.5591 253.09 8.44082 253.757 8.29028V20.0322C253.757 21.3225 254.004 22.301 254.498 22.9677C255.015 23.6129 255.767 23.9354 256.757 23.9354C257.552 23.9354 258.294 23.7096 258.982 23.258C259.671 22.7849 260.262 22.0967 260.757 21.1935L260.724 22.6129C260.23 23.6021 259.509 24.3763 258.563 24.9354C257.638 25.4731 256.574 25.7419 255.369 25.7419ZM260.595 25.6451V12.7419C260.595 11.7311 260.369 11.0215 259.918 10.6129C259.488 10.1828 258.735 9.9462 257.66 9.90319V8.64512C258.047 8.66663 258.445 8.68813 258.853 8.70964C259.262 8.73114 259.681 8.7419 260.111 8.7419C260.864 8.7419 261.563 8.70964 262.208 8.64512C262.875 8.5591 263.509 8.44082 264.111 8.29028V21.1935C264.111 22.2043 264.369 22.9247 264.886 23.3548C265.402 23.7849 266.294 24.0107 267.563 24.0322V25.2903C267.154 25.2473 266.714 25.2258 266.24 25.2258C265.789 25.2043 265.337 25.1935 264.886 25.1935C264.09 25.1935 263.337 25.2258 262.628 25.2903C261.939 25.3763 261.262 25.4946 260.595 25.6451ZM269.55 25.2903V24.0322C270.862 24.0107 271.765 23.8387 272.26 23.5161C272.754 23.172 273.002 22.5699 273.002 21.7096V12.7419C273.002 11.7311 272.733 11.0215 272.195 10.6129C271.679 10.1828 270.797 9.9462 269.55 9.90319V8.64512C270.045 8.66663 270.507 8.68813 270.937 8.70964C271.389 8.73114 271.862 8.7419 272.357 8.7419C273.883 8.7419 275.271 8.59136 276.518 8.29028V21.5161C276.518 22.4193 276.84 23.0645 277.486 23.4516C278.131 23.8172 279.249 24.0107 280.84 24.0322V25.2903C280.453 25.2688 279.926 25.258 279.26 25.258C278.593 25.2365 277.873 25.215 277.099 25.1935C276.324 25.172 275.561 25.1613 274.808 25.1613C273.754 25.1613 272.733 25.1828 271.744 25.2258C270.776 25.2473 270.045 25.2688 269.55 25.2903ZM282.421 14.0967C281.926 14.0967 281.529 13.9677 281.228 13.7096C280.926 13.4301 280.776 13.0752 280.776 12.6451C280.776 12.344 280.83 12.086 280.937 11.8709C281.066 11.6344 281.185 11.4086 281.292 11.1935C281.4 10.9785 281.453 10.7742 281.453 10.5806C281.453 10.129 281.131 9.90319 280.486 9.90319C279.991 9.90319 279.464 10.0322 278.905 10.2903C278.367 10.5268 277.873 10.8602 277.421 11.2903C276.969 11.6989 276.636 12.172 276.421 12.7096L276.324 11.3548C276.905 10.3656 277.647 9.59136 278.55 9.03222C279.453 8.47308 280.4 8.19351 281.389 8.19351C282.4 8.19351 283.195 8.48383 283.776 9.06448C284.378 9.64512 284.679 10.4193 284.679 11.3871C284.679 12.2043 284.464 12.8602 284.034 13.3548C283.625 13.8494 283.088 14.0967 282.421 14.0967Z" fill="#516450"/>
</svg>
