<svg width="259" height="231" viewBox="0 0 259 231" fill="none" xmlns="http://www.w3.org/2000/svg">
<path d="M129.73 231C58.2077 231.128 0.122818 173.176 0.000243269 101.554C-0.00997126 96.2405 0.301592 91.0089 0.914464 85.8591C8.75922 150.06 63.458 203.87 129.674 203.752C195.889 203.635 250.414 149.631 258.029 85.404C258.663 90.5487 258.99 95.7803 259 101.094C259.133 172.715 201.252 230.872 129.73 231ZM53.3916 55.1853C53.2384 53.9681 52.9064 53.0783 52.6562 52.5209C52.4161 51.989 52.2067 51.672 51.9309 51.3958C51.6602 51.1248 51.3487 50.91 50.8022 50.6594C50.2506 50.4088 49.3569 50.0815 48.126 49.9383C49.3977 49.7951 50.3017 49.4576 50.838 49.2121C51.3436 48.982 51.6551 48.7723 51.9309 48.4962C52.222 48.2047 52.4212 47.8876 52.6408 47.4069C52.886 46.8699 53.2282 45.9596 53.3916 44.6862C53.4273 44.855 53.458 45.0186 53.4886 45.1771C53.6418 45.9289 53.8053 46.6756 54.0964 47.3915C54.2752 47.8313 54.5203 48.2046 54.8318 48.5115C55.1076 48.7825 55.4141 48.9871 55.9044 49.2121C56.4406 49.4576 57.3446 49.7951 58.6214 49.9434C57.3599 50.0866 56.4559 50.4241 55.9197 50.6696C55.4089 50.9049 55.0923 51.1145 54.8165 51.3907C54.556 51.6515 54.3415 51.9635 54.1015 52.4902C53.8563 53.0272 53.5244 53.9272 53.3916 55.1853ZM205.644 55.1853C205.491 53.9681 205.159 53.0783 204.909 52.5209C204.669 51.989 204.459 51.672 204.184 51.3958C203.913 51.1248 203.601 50.91 203.055 50.6594C202.503 50.4088 201.609 50.0815 200.379 49.9383C201.65 49.7951 202.554 49.4576 203.091 49.2121C203.596 48.982 203.908 48.7723 204.184 48.4962C204.475 48.2047 204.674 47.8876 204.893 47.4069C205.139 46.8699 205.481 45.9596 205.644 44.6862C205.68 44.855 205.711 45.0186 205.741 45.1771C205.894 45.9289 206.058 46.6756 206.349 47.3915C206.528 47.8313 206.773 48.2046 207.084 48.5115C207.36 48.7825 207.667 48.9871 208.157 49.2121C208.693 49.4576 209.597 49.7951 210.874 49.9434C209.613 50.0866 208.709 50.4241 208.172 50.6696C207.662 50.9049 207.345 51.1145 207.069 51.3907C206.809 51.6515 206.594 51.9635 206.354 52.4902C206.109 53.0272 205.772 53.9272 205.644 55.1853ZM177.381 40.8405C177.1 38.6517 176.512 37.051 176.063 36.0589C175.634 35.1026 175.251 34.5349 174.761 34.0388C174.281 33.553 173.714 33.1643 172.733 32.7194C171.747 32.2694 170.139 31.6762 167.927 31.4205C170.215 31.1648 171.839 30.5562 172.794 30.1164C173.698 29.7022 174.26 29.3237 174.755 28.8277C175.276 28.306 175.639 27.7333 176.032 26.8741C176.477 25.9076 177.09 24.2762 177.381 21.9902C177.442 22.292 177.498 22.5835 177.559 22.875C177.83 24.2251 178.126 25.5701 178.652 26.8537C178.974 27.6412 179.413 28.3112 179.975 28.8635C180.47 29.3493 181.022 29.7175 181.901 30.1164C182.861 30.5562 184.49 31.1648 186.778 31.4256C184.51 31.6864 182.891 32.2899 181.921 32.7348C181.002 33.1541 180.435 33.5326 179.939 34.0337C179.47 34.5042 179.086 35.0616 178.652 36.0077C178.208 36.964 177.61 38.5801 177.381 40.8405ZM80.7971 40.8405C80.5163 38.6517 79.9289 37.051 79.4795 36.0589C79.0505 35.1026 78.6674 34.5349 78.1771 34.0388C77.6971 33.553 77.1301 33.1643 76.1496 32.7194C75.1639 32.2694 73.5551 31.6762 71.3436 31.4205C73.6317 31.1648 75.2558 30.5562 76.2108 30.1164C77.1148 29.7022 77.6766 29.3237 78.172 28.8277C78.693 28.306 79.0556 27.7333 79.4488 26.8741C79.8932 25.9076 80.506 24.2762 80.7971 21.9902C80.8584 22.292 80.9146 22.5835 80.9759 22.875C81.2466 24.2251 81.5428 25.5701 82.0689 26.8537C82.3906 27.6412 82.8298 28.3112 83.3916 28.8635C83.8871 29.3493 84.4387 29.7175 85.3171 30.1164C86.2773 30.5562 87.9065 31.1648 90.1945 31.4256C87.9269 31.6864 86.3079 32.2899 85.3375 32.7348C84.4182 33.1541 83.8513 33.5326 83.3559 34.0337C82.886 34.5042 82.503 35.0616 82.0689 36.0077C81.6296 36.964 81.0321 38.5801 80.7971 40.8405ZM130.103 38.9585C129.526 34.4377 128.305 31.1341 127.381 29.0783C126.492 27.1042 125.705 25.9331 124.684 24.9052C123.688 23.9029 122.518 23.0949 120.491 22.1743C118.453 21.2487 115.128 20.0213 110.562 19.4895C115.292 18.9627 118.647 17.6996 120.624 16.7944C122.493 15.9404 123.657 15.1528 124.674 14.13C125.746 13.0561 126.502 11.8696 127.314 10.095C128.228 8.09547 129.5 4.73046 130.098 0C130.225 0.623909 130.343 1.22737 130.465 1.82571C131.027 4.61795 131.64 7.39487 132.728 10.0439C133.397 11.6753 134.306 13.0561 135.455 14.1965C136.477 15.204 137.621 15.9608 139.434 16.7893C141.42 17.6996 144.781 18.9576 149.515 19.4997C144.837 20.0367 141.482 21.2896 139.48 22.205C137.58 23.0693 136.41 23.8568 135.379 24.8848C134.413 25.8564 133.611 27.0071 132.718 28.9658C131.819 30.95 130.578 34.2894 130.103 38.9585ZM104.612 152.275C81.9463 152.275 66.8901 133.46 65.1842 131.22C62.697 127.963 60.5979 124.388 58.9381 120.593L58.5754 119.76L59.3466 119.284C61.8543 117.735 64.4948 116.441 67.1965 115.428C73.9279 112.907 81.2466 112.043 88.9585 112.861C96.7369 113.684 102.697 116.001 104.658 116.763C107.712 117.944 110.7 119.407 113.586 121.141C111.379 115.817 109.597 109.476 110.174 101.789C110.373 99.1248 110.853 96.4502 111.589 93.8318C114.26 84.3658 119.342 78.096 121.512 75.4163C123.729 72.6854 126.221 70.1233 128.928 67.8015L129.617 67.2134L130.297 67.8118C132.927 70.1182 135.353 72.6803 137.508 75.4316C139.914 78.5103 144.898 84.8823 147.421 93.8318C148.157 96.4502 148.637 99.1248 148.836 101.789C149.413 109.476 147.631 115.817 145.424 121.136C148.305 119.407 151.293 117.944 154.342 116.763C156.298 116.001 162.258 113.684 170.036 112.861L170.098 112.856C177.789 112.048 185.093 112.912 191.804 115.428C194.51 116.441 197.151 117.74 199.653 119.284L200.425 119.76L200.062 120.593C198.392 124.409 196.288 127.983 193.816 131.22C192.028 133.557 175.614 154.014 151.252 152.152C143.948 151.595 136.609 149.007 130.021 144.675L129.505 144.333L128.994 144.67C122.406 149.007 115.062 151.595 107.758 152.152C106.691 152.234 105.644 152.275 104.612 152.275ZM61.2261 120.593C62.7532 123.923 64.6378 127.068 66.839 129.952C68.555 132.197 84.2956 151.85 107.59 150.071C114.173 149.569 120.807 147.324 126.839 143.571C126.717 143.428 126.599 143.279 126.477 143.136C123.014 138.932 120.016 134.355 117.559 129.523L117.421 129.251C116.66 127.753 115.879 126.209 115.128 124.613C111.558 122.204 107.784 120.225 103.908 118.727C102.013 117.99 96.2466 115.75 88.7441 114.953C81.359 114.17 74.3569 114.994 67.932 117.397C65.6286 118.246 63.3814 119.325 61.2261 120.593ZM132.161 143.566C138.193 147.319 144.822 149.564 151.41 150.065C174.689 151.845 190.44 132.192 192.156 129.947C194.347 127.083 196.237 123.938 197.774 120.593C195.624 119.325 193.377 118.251 191.073 117.392C184.648 114.988 177.646 114.165 170.261 114.948L170.2 114.953C162.723 115.75 156.982 117.985 155.093 118.717C151.216 120.215 147.447 122.194 143.877 124.598C143.07 126.306 142.232 127.963 141.441 129.517C138.984 134.355 135.986 138.932 132.524 143.131C132.406 143.274 132.283 143.422 132.161 143.566ZM129.597 69.9903C127.253 72.0717 125.077 74.3372 123.131 76.7357C121.042 79.3132 116.145 85.3477 113.596 94.3995C112.896 96.8849 112.442 99.4214 112.253 101.948C111.589 110.754 114.224 117.76 116.89 123.452C117.666 125.114 118.484 126.73 119.28 128.295L119.418 128.566C121.803 133.261 124.72 137.715 128.085 141.796C128.463 142.251 128.836 142.696 129.199 143.11L129.51 143.463L129.801 143.126C130.164 142.701 130.537 142.262 130.92 141.796C134.28 137.72 137.197 133.271 139.582 128.571C140.404 126.95 141.282 125.222 142.11 123.452C144.776 117.765 147.411 110.759 146.747 101.953C146.558 99.4266 146.104 96.89 145.404 94.4046C142.993 85.854 138.177 79.6967 135.864 76.7357C133.974 74.3117 131.87 72.0513 129.597 69.9903ZM170.818 114.953H170.154V113.904L169.209 113.465C174.224 102.73 174.122 92.3232 173.029 85.1789C171.426 85.4142 169.837 85.7108 168.295 86.0534C160.823 87.7308 153.652 90.7379 146.977 94.9978L145.854 93.2335C152.733 88.8457 160.128 85.7415 167.835 84.0129C169.761 83.5834 171.752 83.2305 173.754 82.9646L174.75 82.8316L174.919 83.8237C176.201 91.2697 176.579 102.607 171.094 114.349L170.818 114.953ZM87.9065 114.349C82.411 102.597 82.7941 91.2646 84.0862 83.8237L84.2548 82.8316L85.2507 82.9646C87.2579 83.2305 89.2497 83.5834 91.1649 84.0129C98.8564 85.7364 106.252 88.8406 113.152 93.2335L112.028 94.9978C105.332 90.7328 98.1568 87.7257 90.7053 86.0534C89.168 85.7057 87.5796 85.4142 85.9759 85.1789C84.8779 92.3181 84.7706 102.715 89.7962 113.465L87.9065 114.349Z" fill="#F7F5F2"/>
</svg>
